<?xml version="1.0" encoding="utf-8"?>
<svg xmlns="http://www.w3.org/2000/svg" viewBox="0 0 300 500" fill="#000000">
	<path d="M 56 2 H 244 L 264 22 V 27.983 L 244 47.983 H 56 L 36 27.983 V 22 L 56 2 Z"/>
	<path d="M 272.2 36 H 277.957 L 297.957 56 V 220 L 277.957 240 H 272.2 L 252.2 220 V 56 L 272.2 36 Z"/>
	<path d="M 56 452 H 244 L 264 472 V 477.983 L 244 497.983 H 56 L 36 477.983 V 472 L 56 452 Z"/>
	<path d="M 22 260.6 H 27.757 L 47.757 280.6 V 444.6 L 27.757 464.6 H 22 L 2 444.6 V 280.6 L 22 260.6 Z"/>
	<path d="M 22 36 H 27.757 L 47.757 56 V 220 L 27.757 240 H 22 L 2 220 V 56 L 22 36 Z"/>
	<path d="M 175 227.008 H 244 L 264 247.008 V 252.991 L 244 272.991 H 175 L 155 252.991 V 247.008 L 175 227.008 Z"/>
	<path d="M 147.122 56.994 H 152.879 L 172.879 76.994 V 216.994 L 152.879 236.994 H 147.122 L 127.122 216.994 V 76.994 L 147.122 56.994 Z"/>
</svg>