<?xml version="1.0" encoding="utf-8"?>
<svg xmlns="http://www.w3.org/2000/svg" viewBox="0 0 300 500" fill="#000000">
	<path d="M 56 2 H 244 L 264 22 V 27.983 L 244 47.983 H 56 L 36 27.983 V 22 L 56 2 Z"/>
	<path d="M 56 452 H 244 L 264 472 V 477.983 L 244 497.983 H 56 L 36 477.983 V 472 L 56 452 Z"/>
	<path d="M 22 260.6 H 27.757 L 47.757 280.6 V 444.6 L 27.757 464.6 H 22 L 2 444.6 V 280.6 L 22 260.6 Z"/>
	<path d="M 56 227.008 H 125 L 145 247.008 V 252.991 L 125 272.991 H 56 L 36 252.991 V 247.008 L 56 227.008 Z"/>
	<path d="M 70.164 58.964 L 116.637 136.309 L 116.638 216.004 L 111.144 216.008 L 58.242 127.964 L 58.242 58.974 Z"/>
	<path d="M 147.122 56.994 H 152.879 L 172.879 76.994 V 216.994 L 152.879 236.994 H 147.122 L 127.122 216.994 V 76.994 L 147.122 56.994 Z"/>
	<path d="M 229.813 441.027 L 183.342 363.686 L 183.342 283.987 L 188.833 283.982 L 241.737 372.029 L 241.737 441.017 Z"/>
</svg>