<?xml version="1.0" encoding="utf-8"?>
<svg xmlns="http://www.w3.org/2000/svg" viewBox="0 0 300 500" fill="#000000">
	<path d="M 272.2 36 H 277.957 L 297.957 56 V 220 L 277.957 240 H 272.2 L 252.2 220 V 56 L 272.2 36 Z"/>
	<path d="M 272.2 260.6 H 277.957 L 297.957 280.6 V 444.6 L 277.957 464.6 H 272.2 L 252.2 444.6 V 280.6 L 272.2 260.6 Z"/>
	<path d="M 22 260.6 H 27.757 L 47.757 280.6 V 444.6 L 27.757 464.6 H 22 L 2 444.6 V 280.6 L 22 260.6 Z"/>
	<path d="M 22 36 H 27.757 L 47.757 56 V 220 L 27.757 240 H 22 L 2 220 V 56 L 22 36 Z"/>
	<path d="M 70.164 58.964 L 116.637 136.309 L 116.638 216.004 L 111.144 216.008 L 58.242 127.964 L 58.242 58.974 Z"/>
	<path d="M 229.813 441.027 L 183.342 363.686 L 183.342 283.987 L 188.833 283.982 L 241.737 372.029 L 241.737 441.017 Z"/>
</svg>