<?xml version="1.0" encoding="utf-8"?>
<svg xmlns="http://www.w3.org/2000/svg" viewBox="0 0 300 500" fill="#000000">
	<path d="M 272.2 36 H 277.957 L 297.957 56 V 220 L 277.957 240 H 272.2 L 252.2 220 V 56 L 272.2 36 Z"/>
	<path d="M 272.2 260.6 H 277.957 L 297.957 280.6 V 444.6 L 277.957 464.6 H 272.2 L 252.2 444.6 V 280.6 L 272.2 260.6 Z"/>
	<path d="M 56 452 H 244 L 264 472 V 477.983 L 244 497.983 H 56 L 36 477.983 V 472 L 56 452 Z"/>
	<path d="M 22 36 H 27.757 L 47.757 56 V 220 L 27.757 240 H 22 L 2 220 V 56 L 22 36 Z"/>
	<path d="M 56 227.008 H 125 L 145 247.008 V 252.991 L 125 272.991 H 56 L 36 252.991 V 247.008 L 56 227.008 Z"/>
	<path d="M 175 227.008 H 244 L 264 247.008 V 252.991 L 244 272.991 H 175 L 155 252.991 V 247.008 L 175 227.008 Z"/>
</svg>